0
SECTION
2
HEADER
9
$INSUNITS
70
4
9
$ACADVER
1
AC1014
9
$HANDSEED
5
FFFF
0
ENDSEC
0
SECTION
2
TABLES
0
TABLE
2
VPORT
5
8
100
AcDbSymbolTable
0
ENDTAB
0
TABLE
2
LTYPE
5
5
100
AcDbSymbolTable
0
LTYPE
5
14
100
AcDbSymbolTableRecord
100
AcDbLinetypeTableRecord
2
BYBLOCK
70
0
0
LTYPE
5
15
100
AcDbSymbolTableRecord
100
AcDbLinetypeTableRecord
2
BYLAYER
70
0
0
ENDTAB
0
TABLE
2
LAYER
5
2
100
AcDbSymbolTable
70
2
0
LAYER
5
50
100
AcDbSymbolTableRecord
100
AcDbLayerTableRecord
2
0
70
0
6
CONTINUOUS
0
ENDTAB
0
TABLE
2
STYLE
5
3
100
AcDbSymbolTable
70
1
0
STYLE
5
11
100
AcDbSymbolTableRecord
100
AcDbTextStyleTableRecord
2
STANDARD
70
0
0
ENDTAB
0
TABLE
2
VIEW
5
6
100
AcDbSymbolTable
70
0
0
ENDTAB
0
TABLE
2
UCS
5
7
100
AcDbSymbolTable
70
0
0
ENDTAB
0
TABLE
2
APPID
5
9
100
AcDbSymbolTable
70
2
0
APPID
5
12
100
AcDbSymbolTableRecord
100
AcDbRegAppTableRecord
2
ACAD
70
0
0
ENDTAB
0
TABLE
2
DIMSTYLE
5
A
100
AcDbSymbolTable
70
1
0
ENDTAB
0
TABLE
2
BLOCK_RECORD
5
1
100
AcDbSymbolTable
70
1
0
BLOCK_RECORD
5
1F
100
AcDbSymbolTableRecord
100
AcDbBlockTableRecord
2
*MODEL_SPACE
0
BLOCK_RECORD
5
1B
100
AcDbSymbolTableRecord
100
AcDbBlockTableRecord
2
*PAPER_SPACE
0
ENDTAB
0
ENDSEC
0
SECTION
2
BLOCKS
0
BLOCK
5
20
100
AcDbEntity
100
AcDbBlockBegin
2
*MODEL_SPACE
0
ENDBLK
5
21
100
AcDbEntity
100
AcDbBlockEnd
0
BLOCK
5
1C
100
AcDbEntity
100
AcDbBlockBegin
2
*PAPER_SPACE
0
ENDBLK
5
1D
100
AcDbEntity
100
AcDbBlockEnd
0
ENDSEC
0
SECTION
2
ENTITIES
0
LWPOLYLINE
5
100
100
AcDbEntity
8
0
100
AcDbPolyline
90
59
70
1
43
0.0
10
-4.2418000000000102
20
4.0250000000000004
10
-4.2418000000000102
20
3.6749999999999998
10
-5.9418000000000104
20
3.6749999999999998
10
-5.9418000000000104
20
3.3250000000000002
10
-4.2418000000000102
20
3.3250000000000002
10
-4.2418000000000102
20
2.9750000000000005
10
-5.9418000000000104
20
2.9750000000000005
10
-5.9418000000000104
20
2.625
10
-4.2418000000000102
20
2.625
10
-4.2418000000000102
20
2.2749999999999999
10
-5.9418000000000104
20
2.2749999999999999
10
-5.9418000000000104
20
1.925
10
-4.2418000000000102
20
1.925
10
-4.2418000000000102
20
1.575
10
-5.9418000000000104
20
1.575
10
-5.9418000000000104
20
1.2250000000000001
10
-4.2418000000000102
20
1.2250000000000001
10
-4.2418000000000102
20
0.874999999999997
10
-5.9418000000000104
20
0.874999999999997
10
-5.9418000000000104
20
0.52499999999999902
10
-4.2418000000000102
20
0.52499999999999902
10
-4.2418000000000102
20
0.17499999999999699
10
-5.9418000000000104
20
0.17499999999999696
10
-5.9418000000000104
20
-0.17500000000000099
10
-4.2418000000000102
20
-0.17500000000000204
10
-4.2418000000000102
20
-0.52500000000000302
10
-5.9418000000000104
20
-0.52500000000000302
10
-5.9418000000000104
20
-0.87500000000000111
10
-4.2418000000000102
20
-0.875000000000002
10
-4.2418000000000102
20
-1.2250000000000001
10
-5.9418000000000104
20
-1.2250000000000001
10
-5.9418000000000104
20
-1.575
10
-4.2418000000000102
20
-1.575
10
-4.2418000000000102
20
-1.925
10
-5.9418000000000104
20
-1.925
10
-5.9418000000000104
20
-2.2749999999999999
10
-4.2418000000000102
20
-2.2749999999999999
10
-4.2418000000000102
20
-2.625
10
-5.9418000000000104
20
-2.625
10
-5.9418000000000104
20
-2.9750000000000005
10
-4.2418000000000102
20
-2.9750000000000005
10
-4.2418000000000102
20
-3.3250000000000002
10
-5.9418000000000104
20
-3.3250000000000002
10
-5.9418000000000104
20
-3.6749999999999998
10
-4.2418000000000102
20
-3.6749999999999998
10
-4.2418000000000102
20
-4.0250000000000004
10
-5.9418000000000104
20
-4.0250000000000004
10
-5.9418000000000104
20
-4.375
10
-4.2418000000000102
20
-4.375
10
-4.24180000000002
20
-5.28424779254504
42
-0.41421356237309503
10
-5.1424522074550101
20
-6.1849000000000309
10
-15.519400000000001
20
-6.1849000000000212
10
-15.519400000000001
20
3.0976808921439201
10
-8.6224008685079294
20
6.1848999999999696
10
-5.1424522074549897
20
6.1848999999999679
42
-0.41421356237309759
10
-4.2417999999999996
20
5.2842477925449707
10
-4.2418000000000102
20
4.375
10
-5.9418000000000104
20
4.375
10
-5.9418000000000104
20
4.0250000000000004
0
CIRCLE
5
101
100
AcDbEntity
8
0
100
AcDbCircle
10
-8.2418000000001399
20
5.19999999999997
30
0
40
0.5
210
0
220
-1.0947644252537633e-47
230
1
0
CIRCLE
5
102
100
AcDbEntity
8
0
100
AcDbCircle
10
-8.2418000000001399
20
-5.2000000000000304
30
0
40
0.5
210
0
220
-1.0947644252537633e-47
230
1
0
LINE
5
103
100
AcDbEntity
8
0
100
AcDbLine
10
-6.9259718309859197
20
4.3029833451280499
30
0
11
-6.9259718309859197
21
4.4755304655468997
31
0
0
LINE
5
104
100
AcDbEntity
8
0
100
AcDbLine
10
-6.9259718309859197
20
4.4755304655468997
30
0
11
-6.1639718309859202
21
4.4755304655468997
31
0
0
LINE
5
105
100
AcDbEntity
8
0
100
AcDbLine
10
-6.1639718309859202
20
4.4755304655468997
30
0
11
-6.1639718309859202
21
4.2650828215678409
31
0
0
LINE
5
106
100
AcDbEntity
8
0
100
AcDbLine
10
-6.1639718309859202
20
4.2650828215678409
30
0
11
-6.6631616215618301
21
4.2650828215678409
31
0
0
SPLINE
5
107
100
AcDbEntity
8
0
100
AcDbSpline
70
0
71
3
72
8
73
4
74
0
42
0.000000001
43
0.0000000001
44
0.0000000001
40
0.61406808989364103
40
0.61406808989364103
40
0.61406808989364103
40
0.61406808989364103
40
0.716622390340662
40
0.716622390340662
40
0.716622390340662
40
0.716622390340662
10
-6.6631616215618301
20
4.2650828215678409
30
0
10
-6.6089753934253705
20
4.19318186500215
30
0
10
-6.5826810331305108
20
4.1389274935542897
30
0
10
-6.5549456529754497
20
4.04615742889768
30
0
0
LINE
5
108
100
AcDbEntity
8
0
100
AcDbLine
10
-6.5549456529754488
20
4.0461574288976809
30
0
11
-6.7245006267974308
21
4.04615742889768
31
0
0
SPLINE
5
109
100
AcDbEntity
8
0
100
AcDbSpline
70
0
71
3
72
8
73
4
74
0
42
0.000000001
43
0.0000000001
44
0.0000000001
40
0.78737235664491101
40
0.78737235664491101
40
0.78737235664491101
40
0.78737235664491101
40
0.92800150487861699
40
0.92800150487861699
40
0.92800150487861699
40
0.92800150487861699
10
-6.7245006267974308
20
4.04615742889768
30
0
10
-6.7661251586619509
20
4.1746505490011998
30
0
10
-6.8204317323670409
20
4.2541016152414199
30
0
10
-6.9259718309859197
20
4.3029833451280499
30
0
0
SPLINE
5
110
100
AcDbEntity
8
0
100
AcDbSpline
70
0
71
3
72
20
73
16
74
0
42
0.000000001
43
0.0000000001
44
0.0000000001
40
0.87811651236847199
40
0.87811651236847199
40
0.87811651236847199
40
0.87811651236847199
40
0.89335194832241305
40
0.89335194832241305
40
0.89335194832241305
40
0.90858738427635399
40
0.90858738427635399
40
0.90858738427635399
40
0.939058256184236
40
0.939058256184236
40
0.939058256184236
40
0.969529128092118
40
0.969529128092118
40
0.969529128092118
40
1
40
1
40
1
40
1
10
-6.57811655881234
20
-4.42441954951334
30
0
10
-6.57394442748791
20
-4.3910424989179404
30
0
10
-6.5754651266947839
20
-4.3790288607682601
30
0
10
-6.5805721900730108
20
-4.365026966877406
30
0
10
-6.5856792534512394
20
-4.3510250729865527
30
0
10
-6.5943726810008201
20
-4.3350349233545247
30
0
10
-6.607999623778027
20
-4.323551918229688
30
0
10
-6.6352535093324407
20
-4.3005859079800128
30
0
10
-6.6822414557973602
20
-4.295648475759096
30
0
10
-6.7085807305222467
20
-4.3170563043269299
30
0
10
-6.7349200052471332
20
-4.3384641328947637
30
0
10
-6.7406106082319877
20
-4.3862172222513474
30
0
10
-6.7282229371301217
20
-4.4168592151573964
30
0
10
-6.7158352660282556
20
-4.4475012080634455
30
0
10
-6.6853693208396701
20
-4.46103210451896
30
0
10
-6.63744860514438
20
-4.4680604761542702
30
0
0
LINE
5
111
100
AcDbEntity
8
0
100
AcDbLine
10
-6.63744860514438
20
-4.4680604761542702
30
0
11
-6.6722632769590504
21
-4.6612573873511796
31
0
0
SPLINE
5
112
100
AcDbEntity
8
0
100
AcDbSpline
70
0
71
3
72
20
73
16
74
0
42
0.000000001
43
0.0000000001
44
0.0000000001
40
0.054756954232526599
40
0.054756954232526599
40
0.054756954232526599
40
0.054756954232526599
40
0.12075020811765108
40
0.12075020811765108
40
0.12075020811765108
40
0.18674346200277614
40
0.18674346200277614
40
0.18674346200277614
40
0.21974008894533817
40
0.21974008894533817
40
0.21974008894533817
40
0.25273671588790114
40
0.25273671588790114
40
0.25273671588790114
40
0.31872996977302498
40
0.31872996977302498
40
0.31872996977302498
40
0.31872996977302498
10
-6.6722632769590504
20
-4.6612573873511796
30
0
10
-6.756160465191221
20
-4.6391085296578902
30
0
10
-6.8131216360954205
20
-4.5951139725784662
30
0
10
-6.8405887180927758
20
-4.5183638073152199
30
0
10
-6.8680558000901311
20
-4.4416136420519727
30
0
10
-6.8660287931806439
20
-4.3321078686049033
30
0
10
-6.851599920329992
20
-4.2591094712730815
30
0
10
-6.8443854839046647
20
-4.2226102726071701
30
0
10
-6.8340705809940472
20
-4.1952379179700712
30
0
10
-6.8108679165567292
20
-4.1686798491417658
30
0
10
-6.7876652521194103
20
-4.1421217803134578
30
0
10
-6.7515748261553901
20
-4.1163779972939443
30
0
10
-6.7146413709980024
20
-4.1062180595701729
30
0
10
-6.6407744606832297
20
-4.0858981841226285
30
0
10
-6.5635354335949927
20
-4.1279136898580404
30
0
10
-6.5202555549513308
20
-4.2067052637990479
30
0
0
SPLINE
5
113
100
AcDbEntity
8
0
100
AcDbSpline
70
0
71
3
72
23
73
19
74
0
42
0.000000001
43
0.0000000001
44
0.0000000001
40
0.31872996977302498
40
0.31872996977302498
40
0.31872996977302498
40
0.31872996977302498
40
0.39471557159034298
40
0.39471557159034298
40
0.39471557159034298
40
0.43270837249900096
40
0.43270837249900096
40
0.43270837249900096
40
0.47070117340765999
40
0.47070117340765999
40
0.47070117340765999
40
0.50869397431631902
40
0.50869397431631902
40
0.50869397431631902
40
0.546686775224977
40
0.546686775224977
40
0.546686775224977
40
0.62267237704229506
40
0.62267237704229506
40
0.62267237704229506
40
0.62267237704229506
10
-6.5202555549513308
20
-4.2067052637990496
30
0
10
-6.4916667361343308
20
-4.096161831039991
30
0
10
-6.4137946206091954
20
-4.0539447663750963
30
0
10
-6.3247798031732234
20
-4.0655370025893189
30
0
10
-6.2802723944552401
20
-4.0713331206964307
30
0
10
-6.2329793102595463
20
-4.0905815640233207
30
0
10
-6.1974381130424323
20
-4.1156475387415501
30
0
10
-6.1618969158253183
20
-4.1407135134597794
30
0
10
-6.138107605586784
20
-4.1715970195693499
30
0
10
-6.1226577224045027
20
-4.2185673907388459
30
0
10
-6.1072078392222195
20
-4.265537761908341
30
0
10
-6.1000973830961902
20
-4.3285949981377616
30
0
10
-6.1013428775605831
20
-4.3845621410448015
30
0
10
-6.1025883720249752
20
-4.4405292839518378
30
0
10
-6.1121898170797904
20
-4.4894063335364942
30
0
10
-6.1284252525198966
20
-4.5286519528360794
30
0
10
-6.1608961234001107
20
-4.6071431914352532
30
0
10
-6.2199029558214907
20
-4.6471087088941401
30
0
10
-6.30842543912122
20
-4.6725353796291706
30
0
0
LINE
5
114
100
AcDbEntity
8
0
100
AcDbLine
10
-6.3084254391212191
20
-4.6725353796291706
30
0
11
-6.3353945510903298
21
-4.4680604761542702
31
0
0
SPLINE
5
115
100
AcDbEntity
8
0
100
AcDbSpline
70
0
71
3
72
17
73
13
74
0
42
0.000000001
43
0.0000000001
44
0.0000000001
40
0.680201106386782
40
0.680201106386782
40
0.680201106386782
40
0.680201106386782
40
0.71946502220224595
40
0.71946502220224595
40
0.71946502220224595
40
0.75872893801771002
40
0.75872893801771002
40
0.75872893801771002
40
0.79799285383317509
40
0.79799285383317509
40
0.79799285383317509
40
0.83725676964863904
40
0.83725676964863904
40
0.83725676964863904
40
0.83725676964863904
10
-6.3353945510903298
20
-4.4680604761542702
30
0
10
-6.2744711848550008
20
-4.4557307472733099
30
0
10
-6.2383318032524757
20
-4.4337818079185451
30
0
10
-6.2295492704269906
20
-4.3951333102313752
30
0
10
-6.2207667376015046
20
-4.3564848125442044
30
0
10
-6.2393410535530558
20
-4.3011367565246283
30
0
10
-6.2806952533299292
20
-4.281103217143384
30
0
10
-6.3220494531068026
20
-4.2610696777621397
30
0
10
-6.3861835367089972
20
-4.2763506550192298
30
0
10
-6.4195179064740024
20
-4.3001528332777061
30
0
10
-6.452852276239005
20
-4.3239550115361807
30
0
10
-6.45538693216682
20
-4.3562783907960405
30
0
10
-6.4319930066887796
20
-4.4347168468106402
30
0
0
LINE
5
116
100
AcDbEntity
8
0
100
AcDbLine
10
-6.4319930066887796
20
-4.4347168468106402
30
0
11
-6.57811655881234
21
-4.42441954951334
31
0
0
LINE
5
117
100
AcDbEntity
8
0
100
AcDbLine
10
-6.863008450704231
20
-5.0594195495133398
30
0
11
-6.863008450704231
21
-4.8897593178531098
31
0
0
LINE
5
118
100
AcDbEntity
8
0
100
AcDbLine
10
-6.863008450704231
20
-4.8897593178531098
30
0
11
-6.1137574854532604
21
-4.8897593178531098
31
0
0
LINE
5
119
100
AcDbEntity
8
0
100
AcDbLine
10
-6.1137574854532604
20
-4.8897593178531098
30
0
11
-6.1137574854532604
21
-5.0966859587797497
31
0
0
LINE
5
120
100
AcDbEntity
8
0
100
AcDbLine
10
-6.1137574854532604
20
-5.0966859587797497
30
0
11
-6.6045953232911003
21
-5.0966859587797497
31
0
0
SPLINE
5
121
100
AcDbEntity
8
0
100
AcDbSpline
70
0
71
3
72
8
73
4
74
0
42
0.000000001
43
0.0000000001
44
0.0000000001
40
0.61406808989364103
40
0.61406808989364103
40
0.61406808989364103
40
0.61406808989364103
40
0.716622390340662
40
0.716622390340662
40
0.716622390340662
40
0.716622390340662
10
-6.6045953232911003
20
-5.0966859587797497
30
0
10
-6.5513156858441812
20
-5.1673839392381709
30
0
10
-6.5254612569313508
20
-5.2207305798896
30
0
10
-6.4981899178857008
20
-5.3119485070422998
30
0
0
LINE
5
122
100
AcDbEntity
8
0
100
AcDbLine
10
-6.4981899178857008
20
-5.3119485070422989
30
0
11
-6.664908064603841
21
-5.3119485070422998
31
0
0
SPLINE
5
123
100
AcDbEntity
8
0
100
AcDbSpline
70
0
71
3
72
8
73
4
74
0
42
0.000000001
43
0.0000000001
44
0.0000000001
40
0.78737235664491101
40
0.78737235664491101
40
0.78737235664491101
40
0.78737235664491101
40
0.92800150487861699
40
0.92800150487861699
40
0.92800150487861699
40
0.92800150487861699
10
-6.664908064603841
20
-5.3119485070422998
30
0
10
-6.7058361757293206
20
-5.1856052074810499
30
0
10
-6.7592341452411411
20
-5.1074834383594006
30
0
10
-6.863008450704231
20
-5.0594195495133398
30
0
0
ENDSEC
0
SECTION
2
OBJECTS
0
DICTIONARY
5
C
100
AcDbDictionary
3
ACAD_GROUP
350
D
3
ACAD_MLINESTYLE
350
17
0
DICTIONARY
5
D
100
AcDbDictionary
0
DICTIONARY
5
1A
330
C
100
AcDbDictionary
0
DICTIONARY
5
17
100
AcDbDictionary
0
ENDSEC
0
EOF
