0
SECTION
2
HEADER
9
$INSUNITS
70
4
9
$ACADVER
1
AC1014
9
$HANDSEED
5
FFFF
0
ENDSEC
0
SECTION
2
TABLES
0
TABLE
2
VPORT
5
8
100
AcDbSymbolTable
0
ENDTAB
0
TABLE
2
LTYPE
5
5
100
AcDbSymbolTable
0
LTYPE
5
14
100
AcDbSymbolTableRecord
100
AcDbLinetypeTableRecord
2
BYBLOCK
70
0
0
LTYPE
5
15
100
AcDbSymbolTableRecord
100
AcDbLinetypeTableRecord
2
BYLAYER
70
0
0
ENDTAB
0
TABLE
2
LAYER
5
2
100
AcDbSymbolTable
70
2
0
LAYER
5
50
100
AcDbSymbolTableRecord
100
AcDbLayerTableRecord
2
0
70
0
6
CONTINUOUS
0
ENDTAB
0
TABLE
2
STYLE
5
3
100
AcDbSymbolTable
70
1
0
STYLE
5
11
100
AcDbSymbolTableRecord
100
AcDbTextStyleTableRecord
2
STANDARD
70
0
0
ENDTAB
0
TABLE
2
VIEW
5
6
100
AcDbSymbolTable
70
0
0
ENDTAB
0
TABLE
2
UCS
5
7
100
AcDbSymbolTable
70
0
0
ENDTAB
0
TABLE
2
APPID
5
9
100
AcDbSymbolTable
70
2
0
APPID
5
12
100
AcDbSymbolTableRecord
100
AcDbRegAppTableRecord
2
ACAD
70
0
0
ENDTAB
0
TABLE
2
DIMSTYLE
5
A
100
AcDbSymbolTable
70
1
0
ENDTAB
0
TABLE
2
BLOCK_RECORD
5
1
100
AcDbSymbolTable
70
1
0
BLOCK_RECORD
5
1F
100
AcDbSymbolTableRecord
100
AcDbBlockTableRecord
2
*MODEL_SPACE
0
BLOCK_RECORD
5
1B
100
AcDbSymbolTableRecord
100
AcDbBlockTableRecord
2
*PAPER_SPACE
0
ENDTAB
0
ENDSEC
0
SECTION
2
BLOCKS
0
BLOCK
5
20
100
AcDbEntity
100
AcDbBlockBegin
2
*MODEL_SPACE
0
ENDBLK
5
21
100
AcDbEntity
100
AcDbBlockEnd
0
BLOCK
5
1C
100
AcDbEntity
100
AcDbBlockBegin
2
*PAPER_SPACE
0
ENDBLK
5
1D
100
AcDbEntity
100
AcDbBlockEnd
0
ENDSEC
0
SECTION
2
ENTITIES
0
LWPOLYLINE
5
100
100
AcDbEntity
8
0
100
AcDbPolyline
90
63
70
1
43
0.0
10
15.519400000000001
20
6.1849000000000212
10
5.1424522074550101
20
6.1849000000000309
42
0.41421356237309576
10
4.2418000000000147
20
5.28424779254504
10
4.2418000000000102
20
4.375
10
5.9418000000000104
20
4.375
10
5.9418000000000104
20
4.0250000000000004
10
4.2418000000000102
20
4.0250000000000004
10
4.2418000000000102
20
3.6749999999999998
10
5.9418000000000104
20
3.6749999999999998
10
5.9418000000000104
20
3.3250000000000002
10
4.2418000000000102
20
3.3250000000000002
10
4.2418000000000102
20
2.9750000000000005
10
5.9418000000000104
20
2.9750000000000005
10
5.9418000000000104
20
2.625
10
4.2418000000000102
20
2.625
10
4.2418000000000102
20
2.2749999999999999
10
5.9418000000000104
20
2.2749999999999999
10
5.9418000000000104
20
1.925
10
4.2418000000000102
20
1.925
10
4.2418000000000102
20
1.575
10
5.9418000000000104
20
1.575
10
5.9418000000000104
20
1.2250000000000001
10
4.2418000000000102
20
1.2250000000000001
10
4.2418000000000102
20
0.875000000000002
10
5.9418000000000104
20
0.87500000000000111
10
5.9418000000000104
20
0.52500000000000302
10
4.2418000000000102
20
0.52500000000000302
10
4.2418000000000102
20
0.17500000000000204
10
5.9418000000000104
20
0.17500000000000099
10
5.9418000000000104
20
-0.17499999999999696
10
4.2418000000000102
20
-0.17499999999999696
10
4.2418000000000102
20
-0.52499999999999902
10
5.9418000000000104
20
-0.52499999999999902
10
5.9418000000000104
20
-0.874999999999997
10
4.2418000000000102
20
-0.874999999999997
10
4.2418000000000102
20
-1.2250000000000001
10
5.9418000000000104
20
-1.2250000000000001
10
5.9418000000000104
20
-1.575
10
4.2418000000000102
20
-1.575
10
4.2418000000000102
20
-1.925
10
5.9418000000000104
20
-1.925
10
5.9418000000000104
20
-2.2749999999999999
10
4.2418000000000102
20
-2.2749999999999999
10
4.2418000000000102
20
-2.625
10
5.9418000000000104
20
-2.625
10
5.9418000000000104
20
-2.9750000000000005
10
4.2418000000000102
20
-2.9750000000000005
10
4.2418000000000102
20
-3.3250000000000002
10
5.9418000000000104
20
-3.3250000000000002
10
5.9418000000000104
20
-3.6749999999999998
10
4.2418000000000102
20
-3.6749999999999998
10
4.2418000000000102
20
-4.0250000000000004
10
5.9418000000000104
20
-4.0250000000000004
10
5.9418000000000104
20
-4.375
10
4.2418000000000102
20
-4.375
10
4.2417999999999996
20
-5.2842477925449707
42
0.41421356237309725
10
5.1424522074549897
20
-6.1848999999999741
10
8.6224008685079294
20
-6.1848999999999696
10
15.519400000000001
20
-3.0976808921439201
10
15.519400000000001
20
-8.7757000000000005
10
-15.519400000000001
20
-8.7757000000000005
10
-15.519400000000001
20
8.7757000000000005
10
15.519400000000001
20
8.7757000000000005
0
ENDSEC
0
SECTION
2
OBJECTS
0
DICTIONARY
5
C
100
AcDbDictionary
3
ACAD_GROUP
350
D
3
ACAD_MLINESTYLE
350
17
0
DICTIONARY
5
D
100
AcDbDictionary
0
DICTIONARY
5
1A
330
C
100
AcDbDictionary
0
DICTIONARY
5
17
100
AcDbDictionary
0
ENDSEC
0
EOF
