0
SECTION
2
HEADER
9
$INSUNITS
70
1
9
$ACADVER
1
AC1014
9
$HANDSEED
5
FFFF
0
ENDSEC
0
SECTION
2
TABLES
0
TABLE
2
VPORT
5
8
100
AcDbSymbolTable
0
ENDTAB
0
TABLE
2
LTYPE
5
5
100
AcDbSymbolTable
0
LTYPE
5
14
100
AcDbSymbolTableRecord
100
AcDbLinetypeTableRecord
2
BYBLOCK
70
0
0
LTYPE
5
15
100
AcDbSymbolTableRecord
100
AcDbLinetypeTableRecord
2
BYLAYER
70
0
0
ENDTAB
0
TABLE
2
LAYER
5
2
100
AcDbSymbolTable
70
2
0
LAYER
5
50
100
AcDbSymbolTableRecord
100
AcDbLayerTableRecord
2
0
70
0
6
CONTINUOUS
0
ENDTAB
0
TABLE
2
STYLE
5
3
100
AcDbSymbolTable
70
1
0
STYLE
5
11
100
AcDbSymbolTableRecord
100
AcDbTextStyleTableRecord
2
STANDARD
70
0
0
ENDTAB
0
TABLE
2
VIEW
5
6
100
AcDbSymbolTable
70
0
0
ENDTAB
0
TABLE
2
UCS
5
7
100
AcDbSymbolTable
70
0
0
ENDTAB
0
TABLE
2
APPID
5
9
100
AcDbSymbolTable
70
2
0
APPID
5
12
100
AcDbSymbolTableRecord
100
AcDbRegAppTableRecord
2
ACAD
70
0
0
ENDTAB
0
TABLE
2
DIMSTYLE
5
A
100
AcDbSymbolTable
70
1
0
ENDTAB
0
TABLE
2
BLOCK_RECORD
5
1
100
AcDbSymbolTable
70
1
0
BLOCK_RECORD
5
1F
100
AcDbSymbolTableRecord
100
AcDbBlockTableRecord
2
*MODEL_SPACE
0
BLOCK_RECORD
5
1B
100
AcDbSymbolTableRecord
100
AcDbBlockTableRecord
2
*PAPER_SPACE
0
ENDTAB
0
ENDSEC
0
SECTION
2
BLOCKS
0
BLOCK
5
20
100
AcDbEntity
100
AcDbBlockBegin
2
*MODEL_SPACE
0
ENDBLK
5
21
100
AcDbEntity
100
AcDbBlockEnd
0
BLOCK
5
1C
100
AcDbEntity
100
AcDbBlockBegin
2
*PAPER_SPACE
0
ENDBLK
5
1D
100
AcDbEntity
100
AcDbBlockEnd
0
ENDSEC
0
SECTION
2
ENTITIES
0
CIRCLE
5
100
100
AcDbEntity
8
0
100
AcDbCircle
10
-1.05
20
-0.44
30
0
40
0.0098425196850393335
210
0
220
-0
230
1
0
CIRCLE
5
101
100
AcDbEntity
8
0
100
AcDbCircle
10
-0.61750000000000005
20
-0.065000000000000002
30
0
40
0.0098425196850393335
210
0
220
-0
230
1
0
CIRCLE
5
102
100
AcDbEntity
8
0
100
AcDbCircle
10
-0.315
20
-0.315
30
0
40
0.0098425196850393786
210
0
220
-0
230
1
0
CIRCLE
5
103
100
AcDbEntity
8
0
100
AcDbCircle
10
-0.89999999999999991
20
-0.40500000000000003
30
0
40
0.0098425196850393335
210
0
220
-0
230
1
0
CIRCLE
5
104
100
AcDbEntity
8
0
100
AcDbCircle
10
-0.8075
20
-0.34250000000000003
30
0
40
0.0098425196850393335
210
0
220
-0
230
1
0
CIRCLE
5
105
100
AcDbEntity
8
0
100
AcDbCircle
10
-0.7599999999999999
20
-0.33999999999999991
30
0
40
0.0098425196850393335
210
0
220
-0
230
1
0
CIRCLE
5
106
100
AcDbEntity
8
0
100
AcDbCircle
10
-0.82000000000000006
20
-0.26500000000000001
30
0
40
0.0098425196850393335
210
0
220
-0
230
1
0
CIRCLE
5
107
100
AcDbEntity
8
0
100
AcDbCircle
10
-0.26000000000000001
20
0.089999999999999997
30
0
40
0.0098425196850393786
210
0
220
-0
230
1
0
CIRCLE
5
108
100
AcDbEntity
8
0
100
AcDbCircle
10
-0.7599999999999999
20
-0.11499999999999998
30
0
40
0.0098425196850393335
210
0
220
-0
230
1
0
CIRCLE
5
109
100
AcDbEntity
8
0
100
AcDbCircle
10
-0.94000000000000006
20
-0.45500000000000002
30
0
40
0.0098425196850393335
210
0
220
-0
230
1
0
CIRCLE
5
110
100
AcDbEntity
8
0
100
AcDbCircle
10
-1.02
20
-0.19500000000000001
30
0
40
0.0098425196850393335
210
0
220
-0
230
1
0
CIRCLE
5
111
100
AcDbEntity
8
0
100
AcDbCircle
10
-1.1300000000000001
20
-0.11
30
0
40
0.0098425196850393335
210
0
220
-0
230
1
0
CIRCLE
5
112
100
AcDbEntity
8
0
100
AcDbCircle
10
-0.41499999999999998
20
-0.39000000000000001
30
0
40
0.0098425196850393335
210
0
220
-0
230
1
0
CIRCLE
5
113
100
AcDbEntity
8
0
100
AcDbCircle
10
-0.16999999999999996
20
-0.029999999999999999
30
0
40
0.0098425196850393786
210
0
220
-0
230
1
0
CIRCLE
5
114
100
AcDbEntity
8
0
100
AcDbCircle
10
-0.79000000000000004
20
-0.065000000000000002
30
0
40
0.0098425196850393335
210
0
220
-0
230
1
0
CIRCLE
5
115
100
AcDbEntity
8
0
100
AcDbCircle
10
-0.065000000000000002
20
0.24999999999999997
30
0
40
0.019685039370078733
210
0
220
-0
230
1
0
CIRCLE
5
116
100
AcDbEntity
8
0
100
AcDbCircle
10
-0.26500000000000001
20
0.24999999999999997
30
0
40
0.019685039370078757
210
0
220
-0
230
1
0
CIRCLE
5
117
100
AcDbEntity
8
0
100
AcDbCircle
10
-0.46499999999999997
20
0.24999999999999997
30
0
40
0.019685039370078757
210
0
220
-0
230
1
0
CIRCLE
5
118
100
AcDbEntity
8
0
100
AcDbCircle
10
-0.66499999999999992
20
0.24999999999999997
30
0
40
0.019685039370078757
210
0
220
-0
230
1
0
CIRCLE
5
119
100
AcDbEntity
8
0
100
AcDbCircle
10
-0.96500000000000008
20
0.24999999999999997
30
0
40
0.019685039370078667
210
0
220
-0
230
1
0
CIRCLE
5
120
100
AcDbEntity
8
0
100
AcDbCircle
10
-0.86499999999999999
20
0.24999999999999997
30
0
40
0.019685039370078667
210
0
220
-0
230
1
0
CIRCLE
5
121
100
AcDbEntity
8
0
100
AcDbCircle
10
-0.040000000000000001
20
-0.65000000000000002
30
0
40
0.049212598425196846
210
0
220
-0
230
1
0
CIRCLE
5
122
100
AcDbEntity
8
0
100
AcDbCircle
10
-1.0900000000000001
20
-0.65000000000000002
30
0
40
0.049212598425196846
210
0
220
-0
230
1
0
CIRCLE
5
123
100
AcDbEntity
8
0
100
AcDbCircle
10
-1.0649999999999999
20
0.24999999999999997
30
0
40
0.019685039370078667
210
0
220
-0
230
1
0
CIRCLE
5
124
100
AcDbEntity
8
0
100
AcDbCircle
10
-0.76500000000000001
20
0.24999999999999997
30
0
40
0.019685039370078757
210
0
220
-0
230
1
0
CIRCLE
5
125
100
AcDbEntity
8
0
100
AcDbCircle
10
-0.56500000000000006
20
0.24999999999999997
30
0
40
0.019685039370078757
210
0
220
-0
230
1
0
CIRCLE
5
126
100
AcDbEntity
8
0
100
AcDbCircle
10
-0.36500000000000005
20
0.24999999999999997
30
0
40
0.019685039370078757
210
0
220
-0
230
1
0
CIRCLE
5
127
100
AcDbEntity
8
0
100
AcDbCircle
10
-0.16500000000000001
20
0.24999999999999997
30
0
40
0.019685039370078733
210
0
220
-0
230
1
0
CIRCLE
5
128
100
AcDbEntity
8
0
100
AcDbCircle
10
-0.79500000000000004
20
0.034999999999999996
30
0
40
0.0098425196850393335
210
0
220
-0
230
1
0
CIRCLE
5
129
100
AcDbEntity
8
0
100
AcDbCircle
10
-0.48500000000000004
20
0.01
30
0
40
0.0098425196850393335
210
0
220
-0
230
1
0
CIRCLE
5
130
100
AcDbEntity
8
0
100
AcDbCircle
10
-0.41000000000000003
20
-0.16
30
0
40
0.0098425196850393335
210
0
220
-0
230
1
0
CIRCLE
5
131
100
AcDbEntity
8
0
100
AcDbCircle
10
-0.67000000000000004
20
-0.40500000000000003
30
0
40
0.0098425196850393335
210
0
220
-0
230
1
0
CIRCLE
5
132
100
AcDbEntity
8
0
100
AcDbCircle
10
-1.0900000000000001
20
-0.50249999999999995
30
0
40
0.0098425196850393335
210
0
220
-0
230
1
0
CIRCLE
5
133
100
AcDbEntity
8
0
100
AcDbCircle
10
-0.22
20
-0.22
30
0
40
0.0098425196850393786
210
0
220
-0
230
1
0
CIRCLE
5
134
100
AcDbEntity
8
0
100
AcDbCircle
10
-0.41000000000000003
20
-0.22
30
0
40
0.0098425196850393335
210
0
220
-0
230
1
0
CIRCLE
5
135
100
AcDbEntity
8
0
100
AcDbCircle
10
-0.60499999999999998
20
-0.01
30
0
40
0.0098425196850393335
210
0
220
-0
230
1
0
CIRCLE
5
136
100
AcDbEntity
8
0
100
AcDbCircle
10
-0.71999999999999997
20
0.11
30
0
40
0.0098425196850393335
210
0
220
-0
230
1
0
CIRCLE
5
137
100
AcDbEntity
8
0
100
AcDbCircle
10
-0.22999999999999995
20
-0.28999999999999998
30
0
40
0.0098425196850393786
210
0
220
-0
230
1
0
CIRCLE
5
138
100
AcDbEntity
8
0
100
AcDbCircle
10
-0.76999999999999991
20
-0.22
30
0
40
0.0098425196850393335
210
0
220
-0
230
1
0
CIRCLE
5
139
100
AcDbEntity
8
0
100
AcDbCircle
10
-0.16999999999999996
20
0.040000000000000001
30
0
40
0.0098425196850393786
210
0
220
-0
230
1
0
CIRCLE
5
140
100
AcDbEntity
8
0
100
AcDbCircle
10
-0.61999999999999988
20
0.16
30
0
40
0.0098425196850393335
210
0
220
-0
230
1
0
CIRCLE
5
141
100
AcDbEntity
8
0
100
AcDbCircle
10
-0.79500000000000004
20
-0.14999999999999999
30
0
40
0.0098425196850393335
210
0
220
-0
230
1
0
CIRCLE
5
142
100
AcDbEntity
8
0
100
AcDbCircle
10
-0.40500000000000003
20
0.074999999999999997
30
0
40
0.0098425196850393335
210
0
220
-0
230
1
0
CIRCLE
5
143
100
AcDbEntity
8
0
100
AcDbCircle
10
-0.61098818897637797
20
-0.14499999999999999
30
0
40
0.0098425196850393335
210
0
220
-0
230
1
0
LWPOLYLINE
5
144
100
AcDbEntity
8
0
100
AcDbPolyline
90
4
70
1
43
0.0
10
-0.12181102362204731
20
-0.54907086614173217
42
-0.92439399999999938
10
-0.098188976377952791
20
-0.54907086614173228
10
-0.098188976377952791
20
-0.55092913385826769
42
-0.92439400000000316
10
-0.12181102362204727
20
-0.55092913385826769
0
LWPOLYLINE
5
145
100
AcDbEntity
8
0
100
AcDbPolyline
90
6
70
1
43
0.0
10
-0.028479842519685029
20
-0.55276771653543311
42
-0.78833699999999374
10
-0.051520078740157481
20
-0.55276771653543311
10
-0.051811023622047252
20
-0.55092913385826769
10
-0.051811023622047293
20
-0.54907086614173217
42
-0.92439399999999938
10
-0.028188976377952753
20
-0.54907086614173228
10
-0.028188976377952753
20
-0.55092913385826769
0
LWPOLYLINE
5
146
100
AcDbEntity
8
0
100
AcDbPolyline
90
9
70
1
43
0.0
10
0.0011903307086614488
20
-0.56010236220472442
42
-0.46100700000000622
10
-0.015945748031496062
20
-0.55453543307086617
10
-0.016520157480314972
20
-0.55276771653543311
10
-0.016811023622047248
20
-0.55092913385826769
10
-0.016811023622047276
20
-0.54907086614173217
42
-0.92439399999999938
10
0.0068110236220472447
20
-0.54907086614173228
10
0.0068110236220472751
20
-0.55092913385826769
42
-0.15838499999999675
10
0.0040089763779527551
20
-0.55769291338582683
10
0.0026943897637795203
20
-0.55900787401574803
0
LWPOLYLINE
5
147
100
AcDbEntity
8
0
100
AcDbPolyline
90
8
70
1
43
0.0
10
-0.086811023622047262
20
-0.54907086614173217
42
-0.92439399999999938
10
-0.063188976377952746
20
-0.54907086614173228
10
-0.063188976377952746
20
-0.55092913385826769
10
-0.063479921259842517
20
-0.55276771653543311
10
-0.064054330708661442
20
-0.55453543307086628
42
-0.46100699999999373
10
-0.081190157480314967
20
-0.56010236220472442
10
-0.082694488188976373
20
-0.55900787401574803
10
-0.084009055118110257
20
-0.55769291338582672
42
-0.1989110000000035
0
LWPOLYLINE
5
148
100
AcDbEntity
8
0
100
AcDbPolyline
90
4
70
1
43
0.0
10
0.018188976377952724
20
-0.54907086614173217
42
-0.92439399999999983
10
0.04181102362204725
20
-0.54907086614173228
10
0.041811023622047257
20
-0.55092913385826769
42
-0.92439400000000316
10
0.018188976377952755
20
-0.55092913385826769
0
LWPOLYLINE
5
149
100
AcDbEntity
8
0
100
AcDbPolyline
90
4
70
1
43
0.0
10
-1.1718110236220471
20
-0.54907086614173217
42
-0.92439399999999217
10
-1.1481889763779527
20
-0.54907086614173228
10
-1.1481889763779527
20
-0.55092913385826769
42
-0.92439399999998895
10
-1.1718110236220471
20
-0.55092913385826769
0
LWPOLYLINE
5
150
100
AcDbEntity
8
0
100
AcDbPolyline
90
8
70
1
43
0.0
10
-1.136811023622047
20
-0.54907086614173217
42
-0.92439400000000604
10
-1.1131889763779528
20
-0.54907086614173228
10
-1.1131889763779528
20
-0.55092913385826769
10
-1.1134803149606298
20
-0.55276771653543311
10
-1.1140551181102365
20
-0.55453543307086606
42
-0.461006999999995
10
-1.1311889763779526
20
-0.56010236220472442
10
-1.1326929133858268
20
-0.55900787401574803
10
-1.1340078740157475
20
-0.55769291338582672
42
-0.19891099999998549
0
LWPOLYLINE
5
151
100
AcDbEntity
8
0
100
AcDbPolyline
90
6
70
1
43
0.0
10
-1.0784803149606299
20
-0.55276771653543311
42
-0.78833699999999918
10
-1.10151968503937
20
-0.55276771653543311
10
-1.1018110236220473
20
-0.55092913385826769
10
-1.1018110236220473
20
-0.54907086614173217
42
-0.92439400000000005
10
-1.0781889763779526
20
-0.54907086614173228
10
-1.0781889763779526
20
-0.55092913385826769
0
LWPOLYLINE
5
152
100
AcDbEntity
8
0
100
AcDbPolyline
90
9
70
1
43
0.0
10
-1.0488110236220471
20
-0.56010236220472487
42
-0.46100699999998762
10
-1.0659448818897637
20
-0.55453543307086617
10
-1.0665196850393701
20
-0.55276771653543311
10
-1.0668110236220472
20
-0.55092913385826769
10
-1.0668110236220474
20
-0.54907086614173217
42
-0.92439400000000005
10
-1.0431889763779527
20
-0.54907086614173228
10
-1.0431889763779529
20
-0.55092913385826769
42
-0.15838500000000177
10
-1.045992125984252
20
-0.55769291338582683
10
-1.0473070866141732
20
-0.55900787401574803
0
LWPOLYLINE
5
153
100
AcDbEntity
8
0
100
AcDbPolyline
90
2
70
1
43
0.0
10
-0.34693202870998541
20
-0.3774016676482872
42
-35.640773853145475
10
-0.34912913385826772
20
-0.37764921259842527
0
LWPOLYLINE
5
154
100
AcDbEntity
8
0
100
AcDbPolyline
90
4
70
1
43
0.0
10
-1.0318110236220472
20
-0.54907086614173217
42
-0.92439399999999217
10
-1.0081889763779528
20
-0.54907086614173228
10
-1.0081889763779528
20
-0.55092913385826769
42
-0.92439399999998895
10
-1.0318110236220472
20
-0.55092913385826769
0
LWPOLYLINE
5
155
100
AcDbEntity
8
0
100
AcDbPolyline
90
2
70
1
43
0.0
10
-0.34693202207694807
20
0.032047269359586891
42
-35.64077385314463
10
-0.34912913385826772
20
0.03179972440944883
0
LWPOLYLINE
5
156
100
AcDbEntity
8
0
100
AcDbPolyline
90
13
70
1
43
0.0
10
0.059999999999999984
20
0.245
10
0.059999999999999998
20
-0.65000000000000036
42
-0.9572920000000007
10
-0.13961929133858267
20
-0.65871653543307085
10
-0.13999999999999999
20
-0.65000000000000002
10
-0.13999999999999996
20
-0.55000000000000004
10
-0.98999999999999999
20
-0.55000000000000004
10
-0.98999999999999999
20
-0.65000000000000024
42
-0.9572920000000007
10
-1.1896181102362204
20
-0.65871653543307085
10
-1.1899999999999999
20
-0.65000000000000002
10
-1.1900000000000004
20
0.24500000000000019
42
-0.38887899999999997
10
-1.0987165354330708
20
0.34461929133858277
10
-1.0900000000000001
20
0.34500000000000003
10
-0.039999999999999813
20
0.3450000000000002
42
-0.41421400000000019
0
ENDSEC
0
SECTION
2
OBJECTS
0
DICTIONARY
5
C
100
AcDbDictionary
3
ACAD_GROUP
350
D
3
ACAD_MLINESTYLE
350
17
0
DICTIONARY
5
D
100
AcDbDictionary
0
DICTIONARY
5
1A
330
C
100
AcDbDictionary
0
DICTIONARY
5
17
100
AcDbDictionary
0
ENDSEC
0
EOF
