M48
; DRILL file {KiCad (5.1.2)-2} date 5/9/2020 4:46:18 PM
; FORMAT={-:-/ absolute / inch / decimal}
; #@! TF.CreationDate,2020-05-09T16:46:18-04:00
; #@! TF.GenerationSoftware,Kicad,Pcbnew,(5.1.2)-2
; #@! TF.FileFunction,Plated,1,2,PTH
FMAT,2
INCH
T1C0.0100
T2C0.0197
T3C0.0394
T4C0.0400
%
G90
G05
T1
X5.1043Y-2.75
X5.1043Y-2.9016
X5.1614Y-2.9154
X5.1654Y-2.8406
X5.1791Y-3.1476
X5.2224Y-3.2795
X5.315Y-2.9213
X5.315Y-2.9528
X5.315Y-3.2087
X5.3346Y-2.937
X5.3543Y-2.9213
X5.3543Y-2.9528
X5.3583Y-3.6594
X5.3661Y-3.4469
X5.3799Y-3.315
X5.3839Y-2.7559
X5.4114Y-3.2146
X5.4134Y-3.7598
X5.4508Y-3.5728
X5.4528Y-2.6936
X5.4587Y-3.7028
X5.4823Y-2.687
X5.4882Y-3.9114
X5.5Y-3.7087
X5.5217Y-3.5728
X5.5677Y-3.6177
X5.5807Y-2.8346
X5.5906Y-3.6024
X5.5906Y-3.6339
X5.6063Y-2.9252
X5.6063Y-2.9567
X5.626Y-2.9409
X5.6267Y-2.5538
X5.6299Y-3.3626
X5.6457Y-2.9252
X5.6457Y-2.9567
X5.6457Y-3.815
X5.6496Y-2.5354
X5.6654Y-3.9114
X5.6689Y-2.7823
X5.6693Y-2.7264
X5.6693Y-2.7559
X5.6693Y-3.4547
X5.6693Y-3.5866
X5.6752Y-3.2205
X5.6752Y-3.5433
X5.6772Y-1.748
X5.685Y-2.6496
X5.6929Y-1.1181
X5.6973Y-2.6811
X5.6988Y-2.9921
X5.6988Y-3.7303
X5.707Y-3.5882
X5.7205Y-1.1181
X5.7244Y-3.6831
X5.7382Y-2.75
X5.7402Y-3.8113
X5.7473Y-2.4409
X5.7473Y-2.6535
X5.748Y-2.6811
X5.7539Y-3.5433
X5.7717Y-1.7953
X5.7756Y-3.9114
X5.7816Y-2.7993
X5.7953Y-1.5551
X5.7953Y-2.5079
X5.7953Y-2.5354
X5.7953Y-2.748
X5.7953Y-3.6457
X5.7972Y-2.6476
X5.7972Y-3.0217
X5.8071Y-2.9921
X5.8071Y-3.6063
X5.8071Y-3.7343
X5.8128Y-2.9528
X5.8366Y-2.6476
X5.8465Y-1.8898
X5.8465Y-2.7993
X5.8563Y-2.4508
X5.8661Y-2.5394
X5.8701Y-3.7756
X5.874Y-3.689
X5.878Y-1.1142
X5.8898Y-3.1024
X5.8898Y-3.1378
X5.8929Y-2.8493
X5.8976Y-3.248
X5.8976Y-3.3583
X5.9016Y-3.689
X5.9055Y-1.1102
X5.9154Y-3.5138
X5.9291Y-3.689
X5.9291Y-3.7362
X5.94Y-3.07
X5.9449Y-2.7993
X5.9449Y-2.8543
X5.9685Y-3.5433
X5.97Y-3.03
X5.9713Y-2.8945
X5.9744Y-2.7264
X5.9744Y-3.13
X5.9843Y-3.3031
X5.9843Y-3.7205
X5.9878Y-2.8733
X5.9941Y-3.4646
X6.0Y-3.5433
X6.0005Y-3.7408
X6.0024Y-2.8976
X6.0079Y-3.685
X6.01Y-3.11
X6.0374Y-3.0256
X6.0394Y-3.1102
X6.0394Y-3.3819
X6.0394Y-3.7008
X6.0433Y-2.4409
X6.0472Y-3.3484
X6.063Y-3.6811
X6.0866Y-3.6811
X6.0866Y-3.7087
X6.1063Y-3.5512
X6.1102Y-3.3366
X6.1102Y-3.6811
X6.1102Y-3.7087
X6.1142Y-3.4843
X6.122Y-2.9331
X6.1417Y-3.4843
X6.1571Y-2.7417
X6.1575Y-2.4291
X6.1575Y-3.3445
X6.1614Y-3.2717
X6.1654Y-3.0
X6.1662Y-2.5689
X6.1732Y-3.4843
X6.187Y-2.4291
X6.1875Y-2.5497
X6.1949Y-3.7205
X6.2008Y-3.4843
X6.2283Y-3.2795
X6.2362Y-3.7953
X6.2539Y-3.6614
X6.2972Y-3.3445
X6.3189Y-3.7126
X6.3224Y-2.5086
X6.3224Y-2.5706
X6.3307Y-3.5945
X6.3386Y-2.8983
X6.3484Y-2.5086
X6.3484Y-2.5706
X6.3498Y-2.709
X6.3583Y-2.6417
X6.3661Y-2.8661
X6.3664Y-2.6664
X6.3664Y-2.8386
X6.3701Y-2.8983
X6.3701Y-2.9843
X6.3976Y-2.8976
X6.3976Y-2.9483
X6.4252Y-2.8976
X6.4252Y-2.9483
X6.4311Y-3.3465
X6.4331Y-3.5039
X6.4488Y-3.2441
X6.4705Y-3.5768
X6.5098Y-2.9272
T3
X5.4945Y-3.1142
X5.4945Y-3.2142
X5.4945Y-3.3142
X5.4945Y-3.4142
X5.4945Y-3.5142
X5.5945Y-3.1142
X5.5945Y-3.2142
X5.5945Y-3.3142
X5.5945Y-3.4142
X5.5945Y-3.5142
X6.4567Y-2.4189
X6.4567Y-2.5189
X6.4567Y-2.6189
X6.4567Y-2.7189
X6.4567Y-2.8189
T4
X5.2394Y-2.5417
X5.2394Y-2.6417
X5.3394Y-2.5417
X5.3394Y-2.6417
X5.4394Y-2.5417
X5.4394Y-2.6417
X5.5394Y-2.5417
X5.5394Y-2.6417
T2
G00X5.8311Y-3.8795
M15
G01X5.8311Y-3.9031
M16
G05
G00X5.8453Y-3.6453
M15
G01X5.8453Y-3.6689
M16
G05
G00X6.1705Y-3.6453
M15
G01X6.1705Y-3.6689
M16
G05
G00X6.1846Y-3.8795
M15
G01X6.1846Y-3.9031
M16
G05
T0
M30
