  0
SECTION
  2
HEADER
  9
$ANGBASE
  50
0.0
  9
$ANGDIR
  70
  1
  9
$MEASUREMENT
  70
0
  0
ENDSEC
  0
SECTION
  2
TABLES
  0
TABLE
  2
LTYPE
  70
4
  0
LTYPE
  5
40F
  2
CONTINUOUS
  70
0
  3
Solid line
  72
65
  73
0
  40
0.0
  0
LTYPE
  5
410
  2
DASHDOT
 70
0
  3
Dash Dot ____ _ ____ _
 72
65
 73
4
 40
2.0
 49
1.25
 49
-0.25
 49
0.25
 49
-0.25
  0
LTYPE
  5
411
  2
DASHED
 70
0
  3
Dashed __ __ __ __ __
 72
65
 73
2
 40
0.75
 49
0.5
 49
-0.25
  0
LTYPE
  5
43B
  2
DOTTED
 70
0
  3
Dotted .  .  .  .
 72
65
 73
2
 40
0.2
 49
0.0
 49
-0.2
  0
ENDTAB
  0
TABLE
  2
STYLE
  70
4
  0
STYLE
  2
KICAD
  70
0
  40
0
  41
1
  42
1
  50
0
  71
0
  3
isocp.shx
  0
STYLE
  2
KICADB
  70
0
  40
0
  41
1
  42
1
  50
0
  71
0
  3
isocp.shx
  0
STYLE
  2
KICADI
  70
0
  40
0
  41
1
  42
1
  50
15
  71
0
  3
isocp.shx
  0
STYLE
  2
KICADBI
  70
0
  40
0
  41
1
  42
1
  50
15
  71
0
  3
isocp.shx
  0
ENDTAB
  0
TABLE
  2
LAYER
  70
30
  0
LAYER
  2
BLACK
  70
0
  62
7
  6
CONTINUOUS
  0
LAYER
  2
GRAY1
  70
0
  62
251
  6
CONTINUOUS
  0
LAYER
  2
GRAY2
  70
0
  62
8
  6
CONTINUOUS
  0
LAYER
  2
GRAY3
  70
0
  62
9
  6
CONTINUOUS
  0
LAYER
  2
WHITE
  70
0
  62
7
  6
CONTINUOUS
  0
LAYER
  2
LYELLOW
  70
0
  62
51
  6
CONTINUOUS
  0
LAYER
  2
BLUE1
  70
0
  62
178
  6
CONTINUOUS
  0
LAYER
  2
GREEN1
  70
0
  62
98
  6
CONTINUOUS
  0
LAYER
  2
CYAN1
  70
0
  62
138
  6
CONTINUOUS
  0
LAYER
  2
RED1
  70
0
  62
18
  6
CONTINUOUS
  0
LAYER
  2
MAGENTA1
  70
0
  62
228
  6
CONTINUOUS
  0
LAYER
  2
BROWN1
  70
0
  62
58
  6
CONTINUOUS
  0
LAYER
  2
BLUE2
  70
0
  62
5
  6
CONTINUOUS
  0
LAYER
  2
GREEN2
  70
0
  62
3
  6
CONTINUOUS
  0
LAYER
  2
CYAN2
  70
0
  62
4
  6
CONTINUOUS
  0
LAYER
  2
RED2
  70
0
  62
1
  6
CONTINUOUS
  0
LAYER
  2
MAGENTA2
  70
0
  62
6
  6
CONTINUOUS
  0
LAYER
  2
BROWN2
  70
0
  62
54
  6
CONTINUOUS
  0
LAYER
  2
BLUE3
  70
0
  62
171
  6
CONTINUOUS
  0
LAYER
  2
GREEN3
  70
0
  62
91
  6
CONTINUOUS
  0
LAYER
  2
CYAN3
  70
0
  62
131
  6
CONTINUOUS
  0
LAYER
  2
RED3
  70
0
  62
11
  6
CONTINUOUS
  0
LAYER
  2
MAGENTA3
  70
0
  62
221
  6
CONTINUOUS
  0
LAYER
  2
YELLOW3
  70
0
  62
2
  6
CONTINUOUS
  0
LAYER
  2
BLUE4
  70
0
  62
5
  6
CONTINUOUS
  0
LAYER
  2
GREEN4
  70
0
  62
3
  6
CONTINUOUS
  0
LAYER
  2
CYAN4
  70
0
  62
4
  6
CONTINUOUS
  0
LAYER
  2
RED4
  70
0
  62
1
  6
CONTINUOUS
  0
LAYER
  2
MAGENTA4
  70
0
  62
6
  6
CONTINUOUS
  0
LAYER
  2
YELLOW4
  70
0
  62
2
  6
CONTINUOUS
  0
ENDTAB
  0
ENDSEC
  0
SECTION
  2
ENTITIES
0
LINE
8
BLACK
6
CONTINUOUS
10
163.225
20
-100
11
163.218
21
-100.002
0
LINE
8
BLACK
6
CONTINUOUS
10
163.218
20
-100.002
11
163.212
21
-100.003
0
LINE
8
BLACK
6
CONTINUOUS
10
163.212
20
-100.003
11
162.532
21
-100.075
0
LINE
8
BLACK
6
CONTINUOUS
10
162.532
20
-100.075
11
162.531
21
-100.075
0
LINE
8
BLACK
6
CONTINUOUS
10
162.531
20
-100.075
11
162.528
21
-100.075
0
LINE
8
BLACK
6
CONTINUOUS
10
162.528
20
-100.075
11
162.525
21
-100.075
0
LINE
8
BLACK
6
CONTINUOUS
10
162.525
20
-100.075
11
162.504
21
-100.075
0
LINE
8
BLACK
6
CONTINUOUS
10
162.504
20
-100.075
11
162.504
21
-100.075
0
LINE
8
BLACK
6
CONTINUOUS
10
162.504
20
-100.075
11
132.496
21
-100.075
0
LINE
8
BLACK
6
CONTINUOUS
10
132.496
20
-100.075
11
132.493
21
-100.075
0
LINE
8
BLACK
6
CONTINUOUS
10
132.493
20
-100.075
11
132.493
21
-100.075
0
LINE
8
BLACK
6
CONTINUOUS
10
132.493
20
-100.075
11
131.813
21
-100.008
0
LINE
8
BLACK
6
CONTINUOUS
10
131.813
20
-100.008
11
131.812
21
-100.008
0
LINE
8
BLACK
6
CONTINUOUS
10
131.812
20
-100.008
11
131.805
21
-100.006
0
LINE
8
BLACK
6
CONTINUOUS
10
131.805
20
-100.006
11
131.799
21
-100.005
0
LINE
8
BLACK
6
CONTINUOUS
10
131.799
20
-100.005
11
131.145
21
-99.8077
0
LINE
8
BLACK
6
CONTINUOUS
10
131.145
20
-99.8077
11
131.144
21
-99.8074
0
LINE
8
BLACK
6
CONTINUOUS
10
131.144
20
-99.8074
11
131.137
21
-99.8047
0
LINE
8
BLACK
6
CONTINUOUS
10
131.137
20
-99.8047
11
131.131
21
-99.8021
0
LINE
8
BLACK
6
CONTINUOUS
10
131.131
20
-99.8021
11
130.528
21
-99.4814
0
LINE
8
BLACK
6
CONTINUOUS
10
130.528
20
-99.4814
11
130.527
21
-99.4809
0
LINE
8
BLACK
6
CONTINUOUS
10
130.527
20
-99.4809
11
130.521
21
-99.4771
0
LINE
8
BLACK
6
CONTINUOUS
10
130.521
20
-99.4771
11
130.516
21
-99.4733
0
LINE
8
BLACK
6
CONTINUOUS
10
130.516
20
-99.4733
11
129.986
21
-99.0416
0
LINE
8
BLACK
6
CONTINUOUS
10
129.986
20
-99.0416
11
129.986
21
-99.041
0
LINE
8
BLACK
6
CONTINUOUS
10
129.986
20
-99.041
11
129.981
21
-99.0361
0
LINE
8
BLACK
6
CONTINUOUS
10
129.981
20
-99.0361
11
129.976
21
-99.0313
0
LINE
8
BLACK
6
CONTINUOUS
10
129.976
20
-99.0313
11
129.541
21
-98.505
0
LINE
8
BLACK
6
CONTINUOUS
10
129.541
20
-98.505
11
129.54
21
-98.5042
0
LINE
8
BLACK
6
CONTINUOUS
10
129.54
20
-98.5042
11
129.536
21
-98.4985
0
LINE
8
BLACK
6
CONTINUOUS
10
129.536
20
-98.4985
11
129.532
21
-98.4928
0
LINE
8
BLACK
6
CONTINUOUS
10
129.532
20
-98.4928
11
129.208
21
-97.892
0
LINE
8
BLACK
6
CONTINUOUS
10
129.208
20
-97.892
11
129.207
21
-97.8911
0
LINE
8
BLACK
6
CONTINUOUS
10
129.207
20
-97.8911
11
129.204
21
-97.8848
0
LINE
8
BLACK
6
CONTINUOUS
10
129.204
20
-97.8848
11
129.202
21
-97.8785
0
LINE
8
BLACK
6
CONTINUOUS
10
129.202
20
-97.8785
11
129
21
-97.226
0
LINE
8
BLACK
6
CONTINUOUS
10
129
20
-97.226
11
129
21
-97.2249
0
LINE
8
BLACK
6
CONTINUOUS
10
129
20
-97.2249
11
128.998
21
-97.2183
0
LINE
8
BLACK
6
CONTINUOUS
10
128.998
20
-97.2183
11
128.997
21
-97.2116
0
LINE
8
BLACK
6
CONTINUOUS
10
128.997
20
-97.2116
11
128.925
21
-96.5323
0
LINE
8
BLACK
6
CONTINUOUS
10
128.925
20
-96.5323
11
128.925
21
-96.5312
0
LINE
8
BLACK
6
CONTINUOUS
10
128.925
20
-96.5312
11
128.925
21
-96.528
0
LINE
8
BLACK
6
CONTINUOUS
10
128.925
20
-96.528
11
128.925
21
-96.5247
0
LINE
8
BLACK
6
CONTINUOUS
10
128.925
20
-96.5247
11
128.925
21
-96.5038
0
LINE
8
BLACK
6
CONTINUOUS
10
128.925
20
-96.5038
11
128.925
21
-96.5037
0
LINE
8
BLACK
6
CONTINUOUS
10
128.925
20
-96.5037
11
128.925
21
-26.9963
0
LINE
8
BLACK
6
CONTINUOUS
10
128.925
20
-26.9963
11
128.925
21
-26.9927
0
LINE
8
BLACK
6
CONTINUOUS
10
128.925
20
-26.9927
11
128.925
21
-26.9927
0
LINE
8
BLACK
6
CONTINUOUS
10
128.925
20
-26.9927
11
128.992
21
-26.3129
0
LINE
8
BLACK
6
CONTINUOUS
10
128.992
20
-26.3129
11
128.992
21
-26.3129
0
LINE
8
BLACK
6
CONTINUOUS
10
128.992
20
-26.3129
11
128.992
21
-26.3129
0
LINE
8
BLACK
6
CONTINUOUS
10
128.992
20
-26.3129
11
128.992
21
-26.3118
0
LINE
8
BLACK
6
CONTINUOUS
10
128.992
20
-26.3118
11
128.994
21
-26.3052
0
LINE
8
BLACK
6
CONTINUOUS
10
128.994
20
-26.3052
11
128.995
21
-26.2985
0
LINE
8
BLACK
6
CONTINUOUS
10
128.995
20
-26.2985
11
129.192
21
-25.6446
0
LINE
8
BLACK
6
CONTINUOUS
10
129.192
20
-25.6446
11
129.193
21
-25.6436
0
LINE
8
BLACK
6
CONTINUOUS
10
129.193
20
-25.6436
11
129.195
21
-25.6373
0
LINE
8
BLACK
6
CONTINUOUS
10
129.195
20
-25.6373
11
129.198
21
-25.631
0
LINE
8
BLACK
6
CONTINUOUS
10
129.198
20
-25.631
11
129.519
21
-25.0279
0
LINE
8
BLACK
6
CONTINUOUS
10
129.519
20
-25.0279
11
129.519
21
-25.0279
0
LINE
8
BLACK
6
CONTINUOUS
10
129.519
20
-25.0279
11
129.519
21
-25.0279
0
LINE
8
BLACK
6
CONTINUOUS
10
129.519
20
-25.0279
11
129.519
21
-25.027
0
LINE
8
BLACK
6
CONTINUOUS
10
129.519
20
-25.027
11
129.523
21
-25.0214
0
LINE
8
BLACK
6
CONTINUOUS
10
129.523
20
-25.0214
11
129.527
21
-25.0157
0
LINE
8
BLACK
6
CONTINUOUS
10
129.527
20
-25.0157
11
129.958
21
-24.4864
0
LINE
8
BLACK
6
CONTINUOUS
10
129.958
20
-24.4864
11
129.959
21
-24.4856
0
LINE
8
BLACK
6
CONTINUOUS
10
129.959
20
-24.4856
11
129.964
21
-24.4808
0
LINE
8
BLACK
6
CONTINUOUS
10
129.964
20
-24.4808
11
129.969
21
-24.476
0
LINE
8
BLACK
6
CONTINUOUS
10
129.969
20
-24.476
11
130.495
21
-24.0406
0
LINE
8
BLACK
6
CONTINUOUS
10
130.495
20
-24.0406
11
130.496
21
-24.0399
0
LINE
8
BLACK
6
CONTINUOUS
10
130.496
20
-24.0399
11
130.502
21
-24.0362
0
LINE
8
BLACK
6
CONTINUOUS
10
130.502
20
-24.0362
11
130.507
21
-24.0324
0
LINE
8
BLACK
6
CONTINUOUS
10
130.507
20
-24.0324
11
131.108
21
-23.7075
0
LINE
8
BLACK
6
CONTINUOUS
10
131.108
20
-23.7075
11
131.108
21
-23.7075
0
LINE
8
BLACK
6
CONTINUOUS
10
131.108
20
-23.7075
11
131.108
21
-23.7075
0
LINE
8
BLACK
6
CONTINUOUS
10
131.108
20
-23.7075
11
131.109
21
-23.707
0
LINE
8
BLACK
6
CONTINUOUS
10
131.109
20
-23.707
11
131.115
21
-23.7045
0
LINE
8
BLACK
6
CONTINUOUS
10
131.115
20
-23.7045
11
131.122
21
-23.7018
0
LINE
8
BLACK
6
CONTINUOUS
10
131.122
20
-23.7018
11
131.774
21
-23.4998
0
LINE
8
BLACK
6
CONTINUOUS
10
131.774
20
-23.4998
11
131.774
21
-23.4998
0
LINE
8
BLACK
6
CONTINUOUS
10
131.774
20
-23.4998
11
131.775
21
-23.4995
0
LINE
8
BLACK
6
CONTINUOUS
10
131.775
20
-23.4995
11
131.782
21
-23.4983
0
LINE
8
BLACK
6
CONTINUOUS
10
131.782
20
-23.4983
11
131.788
21
-23.4969
0
LINE
8
BLACK
6
CONTINUOUS
10
131.788
20
-23.4969
11
132.468
21
-23.4255
0
LINE
8
BLACK
6
CONTINUOUS
10
132.468
20
-23.4255
11
132.469
21
-23.4254
0
LINE
8
BLACK
6
CONTINUOUS
10
132.469
20
-23.4254
11
132.472
21
-23.4254
0
LINE
8
BLACK
6
CONTINUOUS
10
132.472
20
-23.4254
11
132.475
21
-23.4251
0
LINE
8
BLACK
6
CONTINUOUS
10
132.475
20
-23.4251
11
132.496
21
-23.425
0
LINE
8
BLACK
6
CONTINUOUS
10
132.496
20
-23.425
11
132.496
21
-23.425
0
LINE
8
BLACK
6
CONTINUOUS
10
132.496
20
-23.425
11
162.504
21
-23.425
0
LINE
8
BLACK
6
CONTINUOUS
10
162.504
20
-23.425
11
162.507
21
-23.4254
0
LINE
8
BLACK
6
CONTINUOUS
10
162.507
20
-23.4254
11
162.507
21
-23.4254
0
LINE
8
BLACK
6
CONTINUOUS
10
162.507
20
-23.4254
11
163.187
21
-23.492
0
LINE
8
BLACK
6
CONTINUOUS
10
163.187
20
-23.492
11
163.187
21
-23.492
0
LINE
8
BLACK
6
CONTINUOUS
10
163.187
20
-23.492
11
163.187
21
-23.492
0
LINE
8
BLACK
6
CONTINUOUS
10
163.187
20
-23.492
11
163.188
21
-23.4921
0
LINE
8
BLACK
6
CONTINUOUS
10
163.188
20
-23.4921
11
163.195
21
-23.4935
0
LINE
8
BLACK
6
CONTINUOUS
10
163.195
20
-23.4935
11
163.201
21
-23.4949
0
LINE
8
BLACK
6
CONTINUOUS
10
163.201
20
-23.4949
11
163.855
21
-23.6923
0
LINE
8
BLACK
6
CONTINUOUS
10
163.855
20
-23.6923
11
163.856
21
-23.6926
0
LINE
8
BLACK
6
CONTINUOUS
10
163.856
20
-23.6926
11
163.863
21
-23.6953
0
LINE
8
BLACK
6
CONTINUOUS
10
163.863
20
-23.6953
11
163.869
21
-23.6979
0
LINE
8
BLACK
6
CONTINUOUS
10
163.869
20
-23.6979
11
164.472
21
-24.0186
0
LINE
8
BLACK
6
CONTINUOUS
10
164.472
20
-24.0186
11
164.472
21
-24.0186
0
LINE
8
BLACK
6
CONTINUOUS
10
164.472
20
-24.0186
11
164.472
21
-24.0186
0
LINE
8
BLACK
6
CONTINUOUS
10
164.472
20
-24.0186
11
164.473
21
-24.0191
0
LINE
8
BLACK
6
CONTINUOUS
10
164.473
20
-24.0191
11
164.479
21
-24.0229
0
LINE
8
BLACK
6
CONTINUOUS
10
164.479
20
-24.0229
11
164.484
21
-24.0267
0
LINE
8
BLACK
6
CONTINUOUS
10
164.484
20
-24.0267
11
165.014
21
-24.4584
0
LINE
8
BLACK
6
CONTINUOUS
10
165.014
20
-24.4584
11
165.014
21
-24.459
0
LINE
8
BLACK
6
CONTINUOUS
10
165.014
20
-24.459
11
165.019
21
-24.4639
0
LINE
8
BLACK
6
CONTINUOUS
10
165.019
20
-24.4639
11
165.024
21
-24.4687
0
LINE
8
BLACK
6
CONTINUOUS
10
165.024
20
-24.4687
11
165.459
21
-24.995
0
LINE
8
BLACK
6
CONTINUOUS
10
165.459
20
-24.995
11
165.46
21
-24.9958
0
LINE
8
BLACK
6
CONTINUOUS
10
165.46
20
-24.9958
11
165.464
21
-25.0015
0
LINE
8
BLACK
6
CONTINUOUS
10
165.464
20
-25.0015
11
165.468
21
-25.0072
0
LINE
8
BLACK
6
CONTINUOUS
10
165.468
20
-25.0072
11
165.792
21
-25.608
0
LINE
8
BLACK
6
CONTINUOUS
10
165.792
20
-25.608
11
165.792
21
-25.608
0
LINE
8
BLACK
6
CONTINUOUS
10
165.792
20
-25.608
11
165.792
21
-25.608
0
LINE
8
BLACK
6
CONTINUOUS
10
165.792
20
-25.608
11
165.793
21
-25.6089
0
LINE
8
BLACK
6
CONTINUOUS
10
165.793
20
-25.6089
11
165.796
21
-25.6153
0
LINE
8
BLACK
6
CONTINUOUS
10
165.796
20
-25.6153
11
165.798
21
-25.6215
0
LINE
8
BLACK
6
CONTINUOUS
10
165.798
20
-25.6215
11
166
21
-26.274
0
LINE
8
BLACK
6
CONTINUOUS
10
166
20
-26.274
11
166
21
-26.2751
0
LINE
8
BLACK
6
CONTINUOUS
10
166
20
-26.2751
11
166.002
21
-26.2817
0
LINE
8
BLACK
6
CONTINUOUS
10
166.002
20
-26.2817
11
166.003
21
-26.2884
0
LINE
8
BLACK
6
CONTINUOUS
10
166.003
20
-26.2884
11
166.075
21
-26.9677
0
LINE
8
BLACK
6
CONTINUOUS
10
166.075
20
-26.9677
11
166.075
21
-26.9688
0
LINE
8
BLACK
6
CONTINUOUS
10
166.075
20
-26.9688
11
166.075
21
-26.972
0
LINE
8
BLACK
6
CONTINUOUS
10
166.075
20
-26.972
11
166.075
21
-26.9753
0
LINE
8
BLACK
6
CONTINUOUS
10
166.075
20
-26.9753
11
166.075
21
-26.9962
0
LINE
8
BLACK
6
CONTINUOUS
10
166.075
20
-26.9962
11
166.075
21
-26.9963
0
LINE
8
BLACK
6
CONTINUOUS
10
166.075
20
-26.9963
11
166.075
21
-96.5037
0
LINE
8
BLACK
6
CONTINUOUS
10
166.075
20
-96.5037
11
166.075
21
-96.5073
0
LINE
8
BLACK
6
CONTINUOUS
10
166.075
20
-96.5073
11
166.075
21
-96.5073
0
LINE
8
BLACK
6
CONTINUOUS
10
166.075
20
-96.5073
11
166.008
21
-97.1871
0
LINE
8
BLACK
6
CONTINUOUS
10
166.008
20
-97.1871
11
166.008
21
-97.1882
0
LINE
8
BLACK
6
CONTINUOUS
10
166.008
20
-97.1882
11
166.006
21
-97.1948
0
LINE
8
BLACK
6
CONTINUOUS
10
166.006
20
-97.1948
11
166.005
21
-97.2015
0
LINE
8
BLACK
6
CONTINUOUS
10
166.005
20
-97.2015
11
165.808
21
-97.8554
0
LINE
8
BLACK
6
CONTINUOUS
10
165.808
20
-97.8554
11
165.807
21
-97.8564
0
LINE
8
BLACK
6
CONTINUOUS
10
165.807
20
-97.8564
11
165.805
21
-97.8627
0
LINE
8
BLACK
6
CONTINUOUS
10
165.805
20
-97.8627
11
165.802
21
-97.869
0
LINE
8
BLACK
6
CONTINUOUS
10
165.802
20
-97.869
11
165.481
21
-98.4721
0
LINE
8
BLACK
6
CONTINUOUS
10
165.481
20
-98.4721
11
165.481
21
-98.473
0
LINE
8
BLACK
6
CONTINUOUS
10
165.481
20
-98.473
11
165.477
21
-98.4786
0
LINE
8
BLACK
6
CONTINUOUS
10
165.477
20
-98.4786
11
165.473
21
-98.4843
0
LINE
8
BLACK
6
CONTINUOUS
10
165.473
20
-98.4843
11
165.042
21
-99.0136
0
LINE
8
BLACK
6
CONTINUOUS
10
165.042
20
-99.0136
11
165.041
21
-99.0144
0
LINE
8
BLACK
6
CONTINUOUS
10
165.041
20
-99.0144
11
165.036
21
-99.0192
0
LINE
8
BLACK
6
CONTINUOUS
10
165.036
20
-99.0192
11
165.031
21
-99.024
0
LINE
8
BLACK
6
CONTINUOUS
10
165.031
20
-99.024
11
164.505
21
-99.4594
0
LINE
8
BLACK
6
CONTINUOUS
10
164.505
20
-99.4594
11
164.504
21
-99.4601
0
LINE
8
BLACK
6
CONTINUOUS
10
164.504
20
-99.4601
11
164.498
21
-99.4638
0
LINE
8
BLACK
6
CONTINUOUS
10
164.498
20
-99.4638
11
164.493
21
-99.4676
0
LINE
8
BLACK
6
CONTINUOUS
10
164.493
20
-99.4676
11
163.892
21
-99.7925
0
LINE
8
BLACK
6
CONTINUOUS
10
163.892
20
-99.7925
11
163.891
21
-99.793
0
LINE
8
BLACK
6
CONTINUOUS
10
163.891
20
-99.793
11
163.885
21
-99.7955
0
LINE
8
BLACK
6
CONTINUOUS
10
163.885
20
-99.7955
11
163.878
21
-99.7982
0
LINE
8
BLACK
6
CONTINUOUS
10
163.878
20
-99.7982
11
163.226
21
-100
0
LINE
8
BLACK
6
CONTINUOUS
10
163.226
20
-100
11
163.226
21
-100
0
LINE
8
BLACK
6
CONTINUOUS
10
163.226
20
-100
11
163.225
21
-100
0
LINE
8
BLACK
6
CONTINUOUS
10
132.5
20
-23.575
11
132.48
21
-23.5751
0
LINE
8
BLACK
6
CONTINUOUS
10
132.48
20
-23.5751
11
131.811
21
-23.6453
0
LINE
8
BLACK
6
CONTINUOUS
10
131.811
20
-23.6453
11
131.173
21
-23.843
0
LINE
8
BLACK
6
CONTINUOUS
10
131.173
20
-23.843
11
130.585
21
-24.1608
0
LINE
8
BLACK
6
CONTINUOUS
10
130.585
20
-24.1608
11
130.07
21
-24.5869
0
LINE
8
BLACK
6
CONTINUOUS
10
130.07
20
-24.5869
11
129.648
21
-25.1048
0
LINE
8
BLACK
6
CONTINUOUS
10
129.648
20
-25.1048
11
129.334
21
-25.695
0
LINE
8
BLACK
6
CONTINUOUS
10
129.334
20
-25.695
11
129.141
21
-26.3348
0
LINE
8
BLACK
6
CONTINUOUS
10
129.141
20
-26.3348
11
129.075
21
-27.0037
0
LINE
8
BLACK
6
CONTINUOUS
10
129.075
20
-27.0037
11
129.075
21
-96.4997
0
LINE
8
BLACK
6
CONTINUOUS
10
129.075
20
-96.4997
11
129.075
21
-96.5204
0
LINE
8
BLACK
6
CONTINUOUS
10
129.075
20
-96.5204
11
129.145
21
-97.1886
0
LINE
8
BLACK
6
CONTINUOUS
10
129.145
20
-97.1886
11
129.343
21
-97.8271
0
LINE
8
BLACK
6
CONTINUOUS
10
129.343
20
-97.8271
11
129.661
21
-98.415
0
LINE
8
BLACK
6
CONTINUOUS
10
129.661
20
-98.415
11
130.087
21
-98.93
0
LINE
8
BLACK
6
CONTINUOUS
10
130.087
20
-98.93
11
130.605
21
-99.3525
0
LINE
8
BLACK
6
CONTINUOUS
10
130.605
20
-99.3525
11
131.195
21
-99.6662
0
LINE
8
BLACK
6
CONTINUOUS
10
131.195
20
-99.6662
11
131.835
21
-99.8594
0
LINE
8
BLACK
6
CONTINUOUS
10
131.835
20
-99.8594
11
132.504
21
-99.925
0
LINE
8
BLACK
6
CONTINUOUS
10
132.504
20
-99.925
11
162.5
21
-99.925
0
LINE
8
BLACK
6
CONTINUOUS
10
162.5
20
-99.925
11
162.52
21
-99.9249
0
LINE
8
BLACK
6
CONTINUOUS
10
162.52
20
-99.9249
11
163.189
21
-99.8547
0
LINE
8
BLACK
6
CONTINUOUS
10
163.189
20
-99.8547
11
163.827
21
-99.657
0
LINE
8
BLACK
6
CONTINUOUS
10
163.827
20
-99.657
11
164.415
21
-99.3392
0
LINE
8
BLACK
6
CONTINUOUS
10
164.415
20
-99.3392
11
164.93
21
-98.9131
0
LINE
8
BLACK
6
CONTINUOUS
10
164.93
20
-98.9131
11
165.352
21
-98.3952
0
LINE
8
BLACK
6
CONTINUOUS
10
165.352
20
-98.3952
11
165.666
21
-97.805
0
LINE
8
BLACK
6
CONTINUOUS
10
165.666
20
-97.805
11
165.859
21
-97.1652
0
LINE
8
BLACK
6
CONTINUOUS
10
165.859
20
-97.1652
11
165.925
21
-96.4963
0
LINE
8
BLACK
6
CONTINUOUS
10
165.925
20
-96.4963
11
165.925
21
-27.0003
0
LINE
8
BLACK
6
CONTINUOUS
10
165.925
20
-27.0003
11
165.925
21
-26.9796
0
LINE
8
BLACK
6
CONTINUOUS
10
165.925
20
-26.9796
11
165.855
21
-26.3114
0
LINE
8
BLACK
6
CONTINUOUS
10
165.855
20
-26.3114
11
165.657
21
-25.6729
0
LINE
8
BLACK
6
CONTINUOUS
10
165.657
20
-25.6729
11
165.339
21
-25.085
0
LINE
8
BLACK
6
CONTINUOUS
10
165.339
20
-25.085
11
164.913
21
-24.57
0
LINE
8
BLACK
6
CONTINUOUS
10
164.913
20
-24.57
11
164.395
21
-24.1475
0
LINE
8
BLACK
6
CONTINUOUS
10
164.395
20
-24.1475
11
163.805
21
-23.8338
0
LINE
8
BLACK
6
CONTINUOUS
10
163.805
20
-23.8338
11
163.165
21
-23.6406
0
LINE
8
BLACK
6
CONTINUOUS
10
163.165
20
-23.6406
11
162.496
21
-23.575
0
LINE
8
BLACK
6
CONTINUOUS
10
162.496
20
-23.575
11
132.5
21
-23.575
  0
ENDSEC
  0
EOF
